{"title":"Stomp The Yard 2 Homecoming 2010 DVDSCR H264 FEEL-FREE","uid":5747528,"size":1115448870,"categoryP":"video","categoryS":"movies","magnet":"?xt=urn:btih:fe0a2ea15c788be7e7887ee5f979b5e68fde9ebb&amp;dn=Stomp+The+Yard+2+Homecoming+2010+DVDSCR+H264+FEEL-FREE&amp;tr=udp%3A%2F%2Ftracker.openbittorrent.com%3A80&amp;tr=udp%3A%2F%2Fopen.demonii.com%3A1337&amp;tr=udp%3A%2F%2Ftracker.coppersurfer.tk%3A6969&amp;tr=udp%3A%2F%2Fexodus.desync.com%3A6969","seeders":0,"leechers":0,"uploader":"johnnyrep","files":-1,"time":1281281646,"description":"Genre:Drama\nLanguage:English &lt;a href=&quot;\nhttp://www.imdb.com/title/tt1533817/&quot; rel=&quot;nofollow&quot; target=&quot;_NEW&quot;&gt;\nhttp://www.imdb.com/title/tt1533817/&lt;/a&gt;\nSource:DVDSCR\n............................................\nGeneral\nComplete name :Stomp.The.Yard.2.Homecoming.2010.DVDSCR.H264.FEEL-FREE\nFormat : MPEG-4\nFormat profile : Base Media\nCodec ID : isom\nFile size : 1.04 GiB\nDuration : 1h 27mn\nOverall bit rate : 1 695 Kbps\n.............................................\nVideo\nID : 1\nFormat : AVC\nFormat/Info : Advanced Video Codec\nFormat profile : &lt;a class=&quot;__cf_email__&quot; href=&quot;/cdn-cgi/l/email-protection&quot; data-cfemail=&quot;67250614020b0e0902272b524956&quot;&gt;[email&amp;#160;protected]&lt;/a&gt;&lt;script data-cfhash='f9e31' type=&quot;text/javascript&quot;&gt;\n/* &lt;![CDATA[ */!function(){try{var t=&quot;currentScript&quot;in document?document.currentScript:function(){for(var t=document.getElementsByTagName(&quot;script&quot;),e=t.length;e--;)if(t[e].getAttribute(&quot;data-cfhash&quot;))return t[e]}();if(t&amp;&amp;t.previousSibling){var e,r,n,i,c=t.previousSibling,a=c.getAttribute(&quot;data-cfemail&quot;);if(a){for(e=&quot;&quot;,r=parseInt(a.substr(0,2),16),n=2;a.length-n;n+=2)i=parseInt(a.substr(n,2),16)^r,e+=String.fromCharCode(i);e=document.createTextNode(e),c.parentNode.replaceChild(e,c)}t.parentNode.removeChild(t);}}catch(u){}}()/* ]]&gt; */&lt;/script&gt;\nFormat settings, CABAC : No\nFormat settings, ReFrames : 1 frame\nCodec ID : avc1\nCodec ID/Info : Advanced Video Coding\nDuration : 1h 27mn\nBit rate mode : Variable\nBit rate : 1 525 Kbps\nWidth : 688 pixels\nHeight : 288 pixels\nDisplay aspect ratio : 2.35:1\nFrame rate mode : Constant\nFrame rate : 23.976 fps\nResolution : 24 bits\nColorimetry : 4:2:0\nScan type : Progressive\nBits/(Pixel*Frame) : 0.321\nStream size : 956 MiB (90%)\n..............................................\nAudio\nID : 2\nFormat : AAC\nFormat/Info : Advanced Audio Codec\nFormat version : Version 4\nFormat profile : LC\nFormat settings, SBR : No\nCodec ID : 40\nDuration : 1h 27mn\nBit rate mode : Variable\nBit rate : 165 Kbps\nChannel(s) : 2 channels\nChannel positions : L R\nSampling rate : 48.0 KHz\nResolution : 16 bits\nStream size : 104 MiB (10%)\n...............................................\nPlot:\nChance Harris looks to find a balance between his school, work, relationships and opportunity to perform at the nationally televised step competition during homecoming weekend at Truth University\n &lt;a href=&quot;\nhttp://www.starshare.ro/bitbucket/Stomp.The.Yard.2.Homecoming.2010.DVDSCR.H264.FEEL-FREE.mp4_thumbs_%5B2010.08.08_09.28.51%5D.jpg&quot; rel=&quot;nofollow&quot; target=&quot;_NEW&quot;&gt;\nhttp://www.starshare.ro/bitbucket/Stomp.The.Yard.2.Homecoming.2010.DVDSCR.H264.FEEL-FREE.mp4_thumbs_%5B2010.08.08_09.28.51%5D.jpg&lt;/a&gt;","torrent":{"xt":"urn:btih:fe0a2ea15c788be7e7887ee5f979b5e68fde9ebb","amp;dn":"Stomp+The+Yard+2+Homecoming+2010+DVDSCR+H264+FEEL-FREE","amp;tr":["udp%3A%2F%2Ftracker.openbittorrent.com%3A80","udp%3A%2F%2Fopen.demonii.com%3A1337","udp%3A%2F%2Ftracker.coppersurfer.tk%3A6969","udp%3A%2F%2Fexodus.desync.com%3A6969"],"infoHash":"fe0a2ea15c788be7e7887ee5f979b5e68fde9ebb","infoHashBuffer":{"type":"Buffer","data":[254,10,46,161,92,120,139,231,231,136,126,229,249,121,181,230,143,222,158,187]},"announce":[],"urlList":[]}}